<!DOCTYPE svg PUBLIC "-//W3C//DTD SVG 1.1//EN" "http://www.w3.org/Graphics/SVG/1.1/DTD/svg11.dtd">
<!-- Uploaded to: SVG Repo, www.svgrepo.com, Transformed by: SVG Repo Mixer Tools -->
<svg fill="#000000" version="1.1" id="Capa_1" xmlns="http://www.w3.org/2000/svg" xmlns:xlink="http://www.w3.org/1999/xlink" width="64px" height="64px" viewBox="0 0 179.252 179.252" xml:space="preserve" stroke="#000000">
<g id="SVGRepo_bgCarrier" stroke-width="0"/>
<g id="SVGRepo_tracerCarrier" stroke-linecap="round" stroke-linejoin="round"/>
<g id="SVGRepo_iconCarrier"> <g> <g> <path d="M107.808,27.535H92.743v-21.3h14.541c1.729,0,3.118-1.397,3.118-3.118c0-1.72-1.389-3.117-3.118-3.117H71.955 c-1.714,0-3.118,1.397-3.118,3.117c0,1.721,1.404,3.118,3.118,3.118h14.553v21.3H71.443c-1.726,0-3.117,1.397-3.117,3.117v89.882 c0,10.681,7.925,19.467,18.182,20.99v34.61c0,1.717,1.403,3.117,3.118,3.117c1.726,0,3.117-1.4,3.117-3.117v-34.61 c10.267-1.523,18.183-10.31,18.183-20.99V30.652C110.926,28.933,109.537,27.535,107.808,27.535z M104.69,33.771v51.435H92.743 V33.771H104.69z M86.508,33.771v51.435H74.562V33.771H86.508z M89.626,135.605c-8.306,0-15.064-6.759-15.064-15.071V91.44h30.129 v29.094C104.69,128.847,97.932,135.605,89.626,135.605z"/> </g> </g> </g>
</svg>